<svg aria-hidden="true" style="position: absolute; width: 0; height: 0; overflow: hidden;" version="1.1" xmlns="http://www.w3.org/2000/svg" xmlns:xlink="http://www.w3.org/1999/xlink">
<defs>
<symbol id="email" viewBox="0 0 38 30">
<title>email</title>
<path d="M26.024 12.339l12.932-10.948v26.369zM0.153 0h38.701l-19.35 16.278zM19.492 17.869l5.675-4.797 12.331 14.703h-35.996l12.33-14.559zM12.925 12.339l-12.925-10.948v26.369z"></path>
</symbol>
<symbol id="games" viewBox="0 0 40 30">
<title>games</title>
<path d="M21.16 2.56c2.986 0 6.506-2.56 8.32-2.56 10.986 0 17.172 29.44 8.96 29.44-5.12 0-9.626-8.534-17.306-8.534-9.494 0-10.427 8.64-17.361 8.64-8.214 0-1.92-29.546 9.068-29.546 1.597 0 5.331 2.56 8.319 2.56zM31.4 7.040c0.707 0 1.28 0.573 1.28 1.28s-0.573 1.28-1.28 1.28c-0.707 0-1.28-0.573-1.28-1.28v0c0-0.707 0.573-1.28 1.28-1.28v0zM35.24 10.88c0.707 0 1.28 0.573 1.28 1.28s-0.573 1.28-1.28 1.28c-0.707 0-1.28-0.573-1.28-1.28v0c0-0.707 0.573-1.28 1.28-1.28v0zM31.4 14.72c0.707 0 1.28 0.573 1.28 1.28s-0.573 1.28-1.28 1.28c-0.707 0-1.28-0.573-1.28-1.28v0c0-0.707 0.573-1.28 1.28-1.28v0zM27.48 10.88c0.707 0 1.28 0.573 1.28 1.28s-0.573 1.28-1.28 1.28c-0.707 0-1.28-0.573-1.28-1.28v0c0-0.706 0.572-1.279 1.279-1.28h0zM12.2 5.12c3.181 0 5.76 2.579 5.76 5.76s-2.579 5.76-5.76 5.76c-3.181 0-5.76-2.579-5.76-5.76v0c0-3.181 2.579-5.76 5.76-5.76v0zM12.2 7.68c1.767 0 3.2 1.433 3.2 3.2s-1.433 3.2-3.2 3.2c-1.767 0-3.2-1.433-3.2-3.2v0c0-1.767 1.433-3.2 3.2-3.2v0z"></path>
</symbol>
<symbol id="music" viewBox="0 0 38 32">
<title>music</title>
<path d="M28.16 30.72v-2.56h-0.032c0.012-0.212 0.032-0.424 0.032-0.64v-14.080c0-6.009-4.871-10.88-10.88-10.88s-10.88 4.871-10.88 10.88v0 14.080c0 0.216 0.019 0.428 0.032 0.64h-0.032v2.56c-3.562-0.088-6.417-2.997-6.417-6.572 0-0.165 0.006-0.328 0.018-0.489l-0.001 0.022c0-3.932 2.058-5.667 3.84-6.433v-3.807c0-7.423 6.017-13.44 13.44-13.44s13.44 6.017 13.44 13.44v0 3.807c1.782 0.768 3.84 2.501 3.84 6.433 0.011 0.14 0.017 0.303 0.017 0.468 0 3.575-2.854 6.484-6.409 6.572l-0.008 0zM8.96 30.72h-1.28v-14.080h1.28v14.080zM26.88 30.72h-1.28v-14.080h1.28v14.080z"></path>
</symbol>
<symbol id="photos" viewBox="0 0 38 30">
<title>photos</title>
<path d="M34.667 30.667h-28c-1.473 0-2.667-1.194-2.667-2.667v0h28c1.473 0 2.667-1.194 2.667-2.667v0-21.333c1.473 0 2.667 1.194 2.667 2.667v0 21.333c0 1.473-1.194 2.667-2.667 2.667v0zM30.667 26.667h-28c-1.473 0-2.667-1.194-2.667-2.667v0-21.333c0-1.473 1.194-2.667 2.667-2.667v0h28c1.473 0 2.667 1.194 2.667 2.667v0 21.333c0 1.473-1.194 2.667-2.667 2.667v0zM30.667 2.667h-28v21.333h28v-21.333zM10.199 18.979l3.985-6.807 3.987 4.241 5.479-8.712 5.733 14.992h-25.411l3.239-6.839zM8 6.667c1.473 0 2.667 1.194 2.667 2.667s-1.194 2.667-2.667 2.667c-1.473 0-2.667-1.194-2.667-2.667v0c0-1.473 1.194-2.667 2.667-2.667v0z"></path>
</symbol>
<symbol id="videos" viewBox="0 0 38 32">
<title>videos</title>
<path d="M15.322-0.001v0c-8.462 0-15.322 6.86-15.322 15.322v0c0 8.462 6.86 15.322 15.322 15.322s15.322-6.86 15.322-15.322c0-8.462-6.86-15.322-15.322-15.322zM15.348 14.124c0.705 0 1.277 0.572 1.277 1.277s-0.572 1.277-1.277 1.277c-0.705 0-1.277-0.572-1.277-1.277v0c0-0.705 0.572-1.277 1.277-1.277v0zM28.021 9.189c3.044-1.757 8.233-2.384 9.895 0.495v0q2.178 3.773-1.514 8.874l-0.83 1.149c-0.977 1.194-1.785 2.577-2.357 4.076l-0.034 0.102c-0.082 0.289-0.129 0.621-0.129 0.964 0 0.722 0.209 1.396 0.569 1.964l-0.009-0.015c0.565 1.006 1.625 1.674 2.841 1.674 0.251 0 0.495-0.028 0.73-0.082l-0.022 0.004c0.166-0.062 0.357-0.098 0.557-0.098 0.385 0 0.739 0.133 1.018 0.356l-0.003-0.003c0.081 0.108 0.129 0.245 0.129 0.393 0 0.284-0.179 0.527-0.431 0.621l-0.005 0.002c-0.517 0.272-1.13 0.431-1.78 0.431-0.549 0-1.072-0.114-1.546-0.32l0.025 0.010c-1.211-0.368-2.202-1.152-2.827-2.183l-0.012-0.022q-2.209-3.831 2.030-8.915l0.495-0.594q3.625-4.353 1.78-7.55c-0.552-0.955-1.94-1.277-3.476-1.221-1.731 0.067-3.342 0.518-4.77 1.269l0.061-0.029zM15.322 5.186c1.763 0 3.192 1.429 3.192 3.192s-1.429 3.192-3.192 3.192c-1.763 0-3.192-1.429-3.192-3.192v0c0-1.763 1.429-3.192 3.192-3.192v0zM8.299 12.209c1.763 0 3.192 1.429 3.192 3.192s-1.429 3.192-3.192 3.192c-1.763 0-3.192-1.429-3.192-3.192v0c0-1.763 1.429-3.192 3.192-3.192v0zM15.322 19.232c1.763 0 3.192 1.429 3.192 3.192s-1.429 3.192-3.192 3.192c-1.763 0-3.192-1.429-3.192-3.192v0c0-1.763 1.429-3.192 3.192-3.192v0zM22.345 12.209c1.763 0 3.192 1.429 3.192 3.192s-1.429 3.192-3.192 3.192c-1.763 0-3.192-1.429-3.192-3.192v0c0-1.763 1.429-3.192 3.192-3.192v0z"></path>
</symbol>
</defs>
</svg>
